<svg xmlns="http://www.w3.org/2000/svg" id="Layer_1" data-name="Layer 1" viewBox="0 0 341.37 89"><defs><style>.cls-1{fill:#d9dbd9;}.cls-2{fill:#fff;}.cls-3{fill:#fecd19;}</style></defs><title>max66</title><rect class="cls-1" x="51.55" y="32.44" width="21.05" height="84.32" rx="10" ry="10" transform="translate(127.74 94.75) rotate(159.71)"/><rect class="cls-1" x="95.55" y="32.44" width="21.05" height="84.32" rx="10" ry="10" transform="translate(213.01 79.49) rotate(159.71)"/><rect class="cls-2" x="73.55" y="32.44" width="21.05" height="84.32" rx="10" ry="10" transform="translate(12.66 -52.81) rotate(20.29)"/><rect class="cls-1" x="162.37" y="28.78" width="21.05" height="91.79" rx="10" ry="10" transform="translate(341.11 21.18) rotate(148.95)"/><rect class="cls-2" x="125.37" y="28.78" width="21.05" height="91.79" rx="10" ry="10" transform="translate(39.56 -87.68) rotate(31.05)"/><rect class="cls-2" x="211.06" y="21.25" width="21.05" height="106.82" rx="10" ry="10" transform="translate(99.26 -163.1) rotate(45)"/><rect class="cls-2" x="211.06" y="21.25" width="21.05" height="106.82" rx="10" ry="10" transform="translate(412.63 -57.51) rotate(135)"/><rect class="cls-2" x="29.55" y="32.44" width="21.05" height="84.32" rx="10" ry="10" transform="translate(9.93 -37.55) rotate(20.29)"/><circle class="cls-3" cx="296.87" cy="44.5" r="44.5"/><path d="M306.26,64.7a3.59,3.59,0,0,0-.66-1.89,3.83,3.83,0,0,0-3.42-1.67c-2.27,0-3.9,1.28-4.86,3.83a23.3,23.3,0,0,0-1.08,6.24,7.84,7.84,0,0,1,3-2.26,10.31,10.31,0,0,1,3.93-.71A10.21,10.21,0,0,1,311,71.46a11.53,11.53,0,0,1,3,8.23,13.91,13.91,0,0,1-3,8.8q-3,3.81-9.24,3.81a10.64,10.64,0,0,1-9.93-5.63q-2.48-4.4-2.48-11.35a51.76,51.76,0,0,1,.34-6.64,20.33,20.33,0,0,1,2.39-7.57,12.11,12.11,0,0,1,4-4.15A10.77,10.77,0,0,1,302,55.39a11.7,11.7,0,0,1,7.92,2.54,9.67,9.67,0,0,1,3.31,6.77ZM298,84.78a4.94,4.94,0,0,0,3.93,1.82,4.36,4.36,0,0,0,3.67-1.76,7.27,7.27,0,0,0,1.34-4.56,6.86,6.86,0,0,0-1.52-4.78,4.91,4.91,0,0,0-3.74-1.66,5,5,0,0,0-3.17,1.08q-2.06,1.6-2.06,5.17A7,7,0,0,0,298,84.78Z" transform="translate(-18.43 -28.28)"/><path d="M334.26,64.7a3.62,3.62,0,0,0-.67-1.89,3.82,3.82,0,0,0-3.41-1.67q-3.42,0-4.87,3.83a23.71,23.71,0,0,0-1.08,6.24,7.91,7.91,0,0,1,3-2.26,10.31,10.31,0,0,1,3.93-.71A10.19,10.19,0,0,1,339,71.46a11.5,11.5,0,0,1,3,8.23,13.86,13.86,0,0,1-3,8.8q-3,3.81-9.24,3.81a10.64,10.64,0,0,1-9.93-5.63q-2.48-4.4-2.48-11.35a51.5,51.5,0,0,1,.35-6.64,20.15,20.15,0,0,1,2.38-7.57,12.29,12.29,0,0,1,4-4.15A10.77,10.77,0,0,1,330,55.39a11.7,11.7,0,0,1,7.92,2.54,9.72,9.72,0,0,1,3.32,6.77ZM326,84.78a4.94,4.94,0,0,0,3.93,1.82,4.39,4.39,0,0,0,3.68-1.76,7.33,7.33,0,0,0,1.33-4.56,6.81,6.81,0,0,0-1.52-4.78,4.9,4.9,0,0,0-3.73-1.66,5,5,0,0,0-3.18,1.08q-2.06,1.6-2.06,5.17A7,7,0,0,0,326,84.78Z" transform="translate(-18.43 -28.28)"/></svg>