<svg xmlns="http://www.w3.org/2000/svg" viewBox="0 0 489.13 460.27"><defs><style>.cls-1{fill:#366;}</style></defs><title>greyhound_1</title><g id="Layer_2" data-name="Layer 2"><g id="Layer_1-2" data-name="Layer 1"><path class="cls-1" d="M181.22,459.05c-57.32-12.64-107.11-39.43-148-81.5-12.11-12.47-21.11-28-30.93-42.58-2.1-3.12-2.74-8.2-2.09-12C9.47,268.5,20.93,214.56,38.87,162.24c6.4-18.68,14.25-36.86,21.72-56,10.07,6.63,18,13.2,27,17.48,20.83,9.91,42.13,18.85,63.39,27.83,4.22,1.78,11,2.11,8.18-5.2-6.89-17.8-15.26-35-23-52.51l-1.71.36c2.35,12.78,4.69,25.56,7.31,39.83-8.15-3.27-15.54-5.71-22.47-9.1C91.28,111.3,65.68,94.75,50.06,66.48c-7.73-14-8.18-18.08,3.93-27.91A426.8,426.8,0,0,1,101.9,5.18c13.37-8.08,27.5-6.29,40.68,2.47s27.75,13.39,44,14.52c36.14,2.51,72.2,6.21,108.24,9.91C354.56,38.23,414.23,45.07,474,51c17.66,1.74,18,.81,10.53,17.59-19,43-53,70.44-94.67,89.34-39.47,17.9-81.41,25.75-124.41,28.37-33.27,2-37.27,12.25-44.37,37.34-13.47,47.6-19.11,96.6-23.79,145.67-2.85,29.89-5.07,59.84-7.68,91C186.25,459.79,183.7,459.6,181.22,459.05ZM266.87,73.2c6.71-1.27,11.61-4.55,11.78-12.12.16-7.42-4.25-11.25-10.95-12.95-10.23-2.59-20.18-1.91-29.2,3.81-7.89,5-8,12.4.13,16.88,5.79,3.18,12.67,4.4,16.6,5.68C261.06,73.87,264,73.74,266.87,73.2ZM433.2,64.72c.33,11.1,7.26,22,14.39,23.26,8,1.4,13.41-4,20.17-21.15Z"/></g></g></svg>