<svg xmlns="http://www.w3.org/2000/svg" viewBox="0 0 172.02 196.29"><defs><style>.cls-1{fill:#421;}</style></defs><title>horse</title><g id="Layer_2" data-name="Layer 2"><g id="Capa_1" data-name="Capa 1"><path class="cls-1" d="M26.09,155.07c-26.55-39.18-7.81-69.79-7.81-69.79C13.92,84,0,93.12,0,93.12,7.83,64.42,50.91,40,50.91,40c-4.78-1.75-18.27,1.73-18.27,1.73C67.88,7.84,111,20.45,111,20.45,112.26,13.05,133.59,0,133.59,0c-2.18,2.16-3.06,13.93-3.06,13.93,2.18-3.93,9.15-7.84,9.15-7.84-3.91,9.13,0,28.7,0,28.7C151,46.11,163.61,85.28,163.61,85.28l4.8,7c6.09,8.72,3.85,22.42-2.18,25.67-22.62,12.21-24.81-10-24.81-10-18.71-2.18-32.64-23.07-32.64-23.07-25.23,13-11.18,49.87-.28,64,14,18.12,3.74,47.44,3.74,47.44S52.31,193.8,26.09,155.07Z"/></g></g></svg>