<svg xmlns="http://www.w3.org/2000/svg" viewBox="0 0 511 489.7"><defs><style>.cls-1{fill:#ddaa19;}</style></defs><title>star</title><g id="Layer_2" data-name="Layer 2"><g id="Layer_1-2" data-name="Layer 1"><path class="cls-1" d="M114.37,489.7a27.18,27.18,0,0,1-26.46-33.21l32.87-144.81L9.29,213.9a27.18,27.18,0,0,1,15.4-47.52L172.2,153,230.52,16.5a27.16,27.16,0,0,1,50,0L338.79,153l147.49,13.39a27.18,27.18,0,0,1,15.44,47.52L390.23,311.66l32.88,144.8A27.15,27.15,0,0,1,382.7,485.8l-127.2-76L128.3,485.85A27.25,27.25,0,0,1,114.37,489.7ZM255.5,377.05a27.14,27.14,0,0,1,13.92,3.85l120.05,71.8L358.44,316a27.18,27.18,0,0,1,8.61-26.47l105.27-92.32L333,184.58a27.13,27.13,0,0,1-22.57-16.46l-55-128.79-55,128.81A27,27,0,0,1,178,184.54L38.66,197.19l105.26,92.32A27.1,27.1,0,0,1,152.53,316l-31,136.67,120-71.77A27.15,27.15,0,0,1,255.5,377.05ZM171.08,155.63s0,0,0,0Zm168.8-.07,0,.05S339.9,155.58,339.88,155.56Z"/></g></g></svg>