<svg xmlns="http://www.w3.org/2000/svg" viewBox="0 0 490.38 361.13"><defs><style>.cls-1{fill:#257b24;}</style></defs><g id="Layer_2" data-name="Layer 2"><g id="Capa_1" data-name="Capa 1"><path class="cls-1" d="M450.79,0H39.59A39.6,39.6,0,0,0,0,39.59V296.24a39.6,39.6,0,0,0,39.59,39.59h152.1v12.6a12.71,12.71,0,0,0,12.7,12.7H286a12.71,12.71,0,0,0,12.7-12.7v-12.6h152.1a39.6,39.6,0,0,0,39.59-39.59V39.59A39.6,39.6,0,0,0,450.79,0Zm5.65,296.24a5.66,5.66,0,0,1-5.65,5.65H39.59a5.66,5.66,0,0,1-5.65-5.65V39.59a5.66,5.66,0,0,1,5.65-5.65h411.2a5.66,5.66,0,0,1,5.65,5.65Z"/><path class="cls-1" d="M320.68,186.21l-99.11,72a22.6,22.6,0,0,1-35.88-18.29v-144a22.6,22.6,0,0,1,35.88-18.29l99.11,72a22.61,22.61,0,0,1,0,36.58Z"/></g></g></svg>